<?xml version="1.0" encoding="UTF-8" standalone="no"?>
<svg width="32px" height="32px" viewBox="0 0 32 32" version="1.1" xmlns="http://www.w3.org/2000/svg" role="img" aria-hidden="true">
    <defs>
        <linearGradient id="planeGrad" x1="10%" y1="100%" x2="95%" y2="0%">
            <stop offset="0%" stop-color="#2e3092"/>
            <stop offset="55%" stop-color="#5b3aa0"/>
            <stop offset="100%" stop-color="#c1382f"/>
        </linearGradient>
    </defs>
    <g id="Icon-Set-Filled" transform="translate(-310.000000, -309.000000)" fill="url(#planeGrad)">
        <path d="M341.207,309.82 C339.961,308.57 337.771,308.863 336.518,310.119 L330.141,316.481 L318.313,312.061 C317.18,311.768 316.039,311.389 314.634,312.798 C313.917,313.516 312.427,315.01 314.634,317.221 L322.744,323.861 L317.467,329.127 L312.543,327.896 C311.813,327.708 311.321,327.855 310.946,328.269 C310.757,328.505 309.386,329.521 310.342,330.479 L316.067,334.933 L320.521,340.658 C321.213,341.352 321.856,340.919 322.735,340.084 C323.292,339.526 323.172,339.239 323.004,338.426 L321.892,333.536 L327.133,328.277 L333.763,336.389 C335.969,338.6 337.46,337.105 338.177,336.389 C339.583,334.979 339.205,333.837 338.912,332.702 L334.529,320.854 L340.88,314.481 C342.133,313.226 342.454,311.069 341.207,309.82" id="airplane"/>
    </g>
</svg>
